<?xml version="1.0" encoding="utf-8"?>
<!-- Generator: Adobe Illustrator 25.4.1, SVG Export Plug-In . SVG Version: 6.00 Build 0)  -->
<svg version="1.1" id="Capa_1" xmlns="http://www.w3.org/2000/svg" xmlns:xlink="http://www.w3.org/1999/xlink" x="0px" y="0px"
	 viewBox="0 0 2961.3 413.9" style="enable-background:new 0 0 2961.3 413.9;" xml:space="preserve">
<path d="M2948.1,81.4c-4.3,5-7,4.9-9.1-1.2c-4.7-13.7-14.4-21.1-28.4-22.6c-15.2-1.6-30.5-3.4-45.7-3.5
	c-103.9-0.4-207.9-0.3-311.8-0.3c-183.3-0.1-366.5-0.3-549.8-0.4c-174.5-0.1-349.1-0.2-523.6-0.3c-1.9,0-3.7,0-5.9,0
	c-0.1,2.1-0.3,3.7-0.3,5.4c0.1,82.4,0.1,164.7,0.4,247.1c0.1,16.3,1,32.5,2.1,48.8c1.1,15.6,6.2,20.2,21.6,21.4
	c3.6,0.3,7.2,0.7,10.7,1c3,0.2,7-0.3,7,3.7c0,1.8-3.4,3.7-5.2,5.5c-8.3,0-16.7,0-25,0c-12.6-0.4-25.2-1-37.7-1.1
	c-6.3-0.1-12.7,0.7-19.1,1.1c-7.2,0-14.4,0-21.6,0c-1.3-2-2.7-4-4-6.1c2.2-1.1,4.3-2.8,6.6-3.1c16.9-2,19.6-3.7,21.5-20.4
	c1.9-16.7,2.6-33.6,2.7-50.4c0.3-82.7,0.3-165.4,0.4-248.2c0-1.3-0.1-2.6-0.2-3.7c-0.5-0.3-0.8-0.7-1.1-0.7
	c-24.6,0.5-49.2,1-73.8,1.7c-14.5,0.4-24.5,7.8-30.2,21.1c-0.8,1.7-1.3,3.8-2.6,5c-1.7,1.6-4,2.6-6.1,3.9c-0.9-2.1-2.8-4.4-2.4-6.2
	c3.7-17,7.9-33.8,11.9-50.7c4.2,0,8.3,0,12.5,0c2.6,0.8,5.2,2.1,7.9,2.2c13.6,1,27.2,2.3,40.8,2.3c500.3,0.1,1000.5,0.1,1500.8,0.1
	c5.5,0,11,0.3,16.5-0.4c9.3-1.1,18.6-2.9,27.9-4.3c0.4,0,0.8,0,1.1,0c1.1,2.6,2.7,5.1,3.3,7.8c2.8,12.5,5.4,25.1,8,37.7
	C2948.1,76.1,2948.1,78.8,2948.1,81.4z"/>
<path d="M40,197.3c1.5-9.3,2.8-18.6,4.6-27.8C57.8,103.1,107.5,55.8,174.2,45c40-6.5,79.5-4,119,3.9c10,2,20.2,2.6,30.4,3.9
	c6.1,0.8,7.4,2.4,7.1,8.5c-1,19.8-2,39.7-3,59.5c0,0.9,0.2,2.1-0.2,2.8c-1.4,2.1-3,4.1-4.6,6.1c-1.5-1.9-3.6-3.6-4.2-5.8
	c-1.1-3.6-1.1-7.5-1.9-11.2c-3.3-17.3-13.8-29-29.1-36.8c-21.3-10.9-44.3-15-67.9-15.9c-23.6-0.9-46.9,0.9-69,10.2
	c-36.3,15.2-56.9,43.2-65.5,80.8c-12.2,53-4.5,102.9,26.2,148c23.8,35,58.3,54.3,99.9,60.6c20.4,3.1,40.8,2.4,60.8-3.2
	c15.1-4.3,18-8.3,18-23.7c0-24.6,0-49.2-0.1-73.8c0-5.3-0.4-10.6-0.9-15.9c-1.3-14.8-7.2-20.6-22.3-21.9c-3.2-0.3-6.5-0.1-9.6-0.9
	c-1.6-0.4-3.8-2.6-3.7-3.9c0.1-1.5,2.2-3.7,3.7-4c3.1-0.7,6.4-0.4,9.6-0.4c27.2,0,54.5-0.1,81.7,0c3.8,0,9.7-1.6,9.8,4.5
	c0.1,5.7-5.7,4.2-9.3,4.6c-13.2,1.6-18.6,6.1-19.1,19.4c-0.9,27.8-1,55.6-1.4,83.4c-0.2,9.6-0.4,19.3-0.5,28.9
	c-0.1,5.6-2.9,9-7.8,11.4c-22.1,10.9-45.7,16-69.9,17.7c-39,2.8-77.1-1.3-113.4-16.8C84,342.7,54.8,301.8,43.4,246.9
	c-1.4-7-2.3-14.1-3.5-21.2C40,216.2,40,206.8,40,197.3z"/>
<path d="M748.8,295.9c1.4-2.8,2.5-4.7,3.4-6.6c29.1-60.7,58.2-121.4,87.3-182c1.6-3.3,2.9-8.3,7.3-7.1c2.2,0.6,4.2,5.4,4.6,8.6
	c3.1,25.3,5.9,50.7,8.7,76.1c4.6,40.4,9.1,80.8,13.7,121.2c0.2,1.5,0.6,3,0.9,4.4c3.4,15,9.4,20.4,24.7,21.9c3,0.3,6.1,0.1,9,0.8
	c1.5,0.3,2.8,1.9,4.1,2.8c-1.2,1.3-2.2,2.9-3.7,3.7c-1.4,0.7-3.3,0.7-5,0.7c-18.2-0.7-36.3-1.4-54.5-2.2c-1.8-0.1-4.1-0.3-5.4-1.4
	c-1.1-1-1.6-3.4-1.4-5c0.5-3.5,2.6-7,2.3-10.3c-2.5-29-5.4-58-8.1-87c-2.1-22.2-4.3-44.4-6.6-68.4c-1.6,3-2.5,4.7-3.4,6.4
	c-25.2,52.3-50.4,104.5-75.8,156.7c-1.9,4-2.9,10.8-8.4,9.9c-3.3-0.5-6.5-5.7-8.4-9.5c-25.6-51-51-102.2-76.4-153.3
	c-0.9-1.8-1.8-3.7-3.1-6.4c-0.6,2-1.1,3.1-1.2,4.3c-3.2,36-6.4,72-9.4,108c-1.1,12.6-1.9,25.3-2.4,37.9c-0.3,8.4,1.8,10.6,10.1,12.1
	c2.8,0.5,5.7,0.4,8.4,1.1c1.4,0.3,2.5,1.8,3.7,2.7c-1.1,1.3-2.1,2.9-3.5,3.9c-1,0.7-2.6,0.5-3.9,0.5c-18.2,0-36.3,0-54.5,0
	c-1.3,0-2.8,0.2-3.9-0.4c-1.5-0.8-2.7-2.3-4-3.5c1.3-1.1,2.6-2.3,4-3.2c0.7-0.5,1.8-0.3,2.8-0.4c12.6-1.3,15.5-3.7,17.1-16.1
	c3.6-28.5,6.7-57.1,10-85.7c4.7-41,9.2-82,13.9-122.9c0.2-1.7,0.6-3.4,1.2-4.9c1.8-4.3,5.3-4.8,8.3-1.1c1.5,1.9,2.6,4.2,3.7,6.4
	c30,60.2,60,120.5,90,180.7C746.3,291.2,747.3,293.1,748.8,295.9z"/>
<path d="M975.5,219.3c0,29.7-0.5,57.6,0.2,85.6c0.3,13.4,4.5,17.9,17.9,18.7c14.8,0.9,29.8,0.4,44.7-0.7c9.5-0.7,15.7-6.9,18.2-16.3
	c0.7-2.7,1-5.7,2.2-8.2c0.7-1.5,2.8-2.5,4.2-3.7c1,1.6,3,3.2,2.9,4.7c-0.7,8.5-1.8,16.9-2.8,25.3c-0.2,1.3-0.4,2.6-0.7,3.9
	c-1.7,8.4-4.8,11.4-13.5,11.5c-13.2,0.2-26.5,0-39.7-0.2c-26.5-0.3-53-0.6-79.4-0.8c-1.3,0-2.8,0.4-3.9-0.1c-2-0.9-3.7-2.4-5.5-3.6
	c1.6-1.2,3.2-2.6,4.9-3.4c1.3-0.6,3-0.5,4.5-0.7c7.5-0.8,10.4-2.7,11.4-10.3c1.6-12.4,2.7-24.8,2.8-37.3
	c0.3-46.4,0.2-92.7,0.2-139.1c0-6.4-0.5-12.9-0.9-19.3c-0.6-10.1-4.4-14.1-14.5-15.5c-3.2-0.4-6.5-0.3-9.6-1c-1.5-0.3-2.7-2-4-3.1
	c1.3-1.2,2.4-3,3.9-3.5c1.9-0.7,4.1-0.4,6.2-0.4c34.1,0.3,68.1,0.7,102.2,0.7c8.6,0,17.3-1.5,25.8-2.7c3.7-0.5,5.2,0.7,4.9,4
	c-1.3,11.6-2.6,23.3-4.3,34.9c-0.3,1.8-2.6,3.2-4,4.8c-1.4-1.8-3.2-3.3-4-5.3c-0.8-2.2-0.5-4.9-0.9-7.3c-1-5-3.9-8.7-8.9-10
	c-5.3-1.3-10.7-2.8-16.1-3c-13.6-0.7-27.2-0.7-40.9-1c-0.9,0-1.8,0.2-3.2,0.4c0,29.2,0,58.3,0,87.3c0.3,0.3,0.6,0.7,0.9,0.7
	c19.5-0.3,38.9-0.4,58.4-1.2c3.4-0.1,6.6-3,10-4.5c1.9-0.9,4-1.5,6-2.3c0.5,1.9,1.5,3.8,1.4,5.6c-1.1,12.4-2.3,24.8-3.8,37.2
	c-0.2,1.7-2.4,3.2-3.6,4.8c-1.3-1.5-3-2.9-3.8-4.7c-0.7-1.6-0.2-3.7-0.5-5.6c-1-6.8-4.8-11.7-11.5-12.3
	C1011.3,221.1,993.6,220.4,975.5,219.3z"/>
<path d="M462.2,248c-9.8,0-19.7-0.1-29.5,0.1c-1.8,0.1-4.6,1.6-5.1,3c-7.2,21.5-14.5,43-20.8,64.7c-3.4,11.8-1,14.1,11.2,15.8
	c1.8,0.3,3.4,2.2,5,3.3c-1.8,1.3-3.6,3.7-5.4,3.8c-20,0.3-40.1,0.3-60.2,0c-2,0-3.9-2.6-5.9-3.9c1.9-1.1,3.9-3.2,5.8-3.2
	c15.9,0.4,24.1-9,29-22.5c12.9-35.3,25.7-70.7,38.5-106c11.4-31.4,22.7-62.9,34.3-94.3c1.4-3.8,4.2-9.4,6.9-9.8
	c5.5-0.8,6,5.8,7.6,9.7c23.6,61.4,47,122.8,70.7,184.2c3.3,8.6,7.6,16.9,12.2,24.9c5,8.9,13.3,13.2,23.5,13.6
	c1.3,0.1,2.8-0.1,3.9,0.5c1.2,0.6,3.1,2,3,2.7c-0.3,1.4-1.6,3-2.9,3.5c-1.8,0.8-4.1,0.9-6.1,0.9c-16.7-0.2-33.3-0.5-50-1
	c-2.2-0.1-4.4-1.6-6.5-2.5c1-1.6,2.5-3.2,2.9-4.9c0.5-2.6,0.8-5.6-0.1-7.9c-7.7-21.1-15.6-42.2-23.5-63.2
	c-4.3-11.6-4.4-11.5-17-11.4C476.6,248.1,469.4,248,462.2,248z M433.7,233.3c19.5,0,38.2,0,57.5,0c-9.8-28.2-19.5-55.8-29.2-83.5
	c-0.5,0-1,0-1.4,0C451.7,177.6,442.7,205.3,433.7,233.3z"/>
<path d="M1184.3,156.2c47.8,0,79.2,34.6,74.9,82.4c-2.6,28.8-14.5,52-40.7,65.9c-48.7,25.8-105.3-5.6-109.8-60.5
	c-1.2-14.2,0.5-27.9,5.9-41.1C1127,172.7,1151.6,156.2,1184.3,156.2z M1205.2,296.8c9.2-3.3,16.9-7.3,22-15.2
	c6.6-10.3,9.7-21.7,10.7-33.7c1.7-19.8-0.5-38.9-11-56.3c-5-8.3-12.1-14.2-21.7-18.1C1205.2,214.6,1205.2,255.1,1205.2,296.8z
	 M1162.8,295.1c0-41.3,0-81.9,0-123.3c-2.2,0.9-4,1.4-5.6,2.2c-10.5,5.5-18.4,13.6-22.3,24.7c-10.1,28.7-6.9,56.2,9.5,81.9
	C1148.6,287.2,1154.6,292.1,1162.8,295.1z M1179.5,299.3c0-43.7,0-86.9,0-130.6c-2.9,0.2-5.4,0.4-7.9,0.6c0,43.4,0,86.1,0,128.9
	c1.9,0.4,3.5,0.9,5.2,1.2C1177.5,299.4,1178.3,299.3,1179.5,299.3z M1188.4,299.2c8.2,0.6,8.2,0.6,8.2-6.7c0-38.6,0-77.2,0-115.7
	c0-2,0-4.1,0-6.4c-3-0.5-5.4-0.9-8.2-1.4C1188.4,212.7,1188.4,255.7,1188.4,299.2z"/>
<path d="M1294.5,222.3c12.6,0,24.7,0.2,36.8-0.2c2.3-0.1,4.6-2.2,6.9-3.3c1-0.5,2.5-1.3,3-0.9c0.9,0.7,1.7,2.1,1.6,3.2
	c-0.6,7.7-1.4,15.4-2.3,23.1c-0.1,1.1-1.7,2-2.7,3c-0.9-1-2.3-1.9-2.7-3.1c-3.1-10.3-4.5-11.5-15.4-11.6c-8.3-0.1-16.6,0-25.7,0
	c0,3.1,0,6.1,0,9c0.3,17,0.4,34.1,0.9,51.1c0.3,9.2,2,10.5,11.3,11.3c1.1,0.1,2.4-0.1,3.4,0.3c0.9,0.4,2.4,1.4,2.3,1.9
	c-0.2,1.1-1.1,2.4-2,2.9c-1.1,0.6-2.6,0.5-3.9,0.5c-12.9,0-25.7,0.2-38.6,0c-1.9,0-3.8-1.6-5.7-2.4c1.7-1.1,3.2-2.8,5-3
	c4.2-0.6,6.5-2.8,6.9-6.9c0.4-3.9,1-7.9,1-11.9c0.1-37.5,0.1-74.9,0.1-112.4c0-10.9-0.8-11.6-11.5-13.3c-1.6-0.3-2.9-1.7-4.4-2.7
	c1.8-0.9,3.6-2.7,5.3-2.7c22.9-0.1,45.8,0.1,68.7,0c3.9,0,7.9-0.6,11.8-1.2c2.8-0.4,4.6,0.2,4.3,3.3c-0.6,6.4-1.4,12.8-2.4,19.1
	c-0.2,1.4-1.8,2.5-2.7,3.8c-1.1-1.3-2.9-2.5-3.1-3.9c-0.7-7-5.1-10.1-11.4-10.2c-11.5-0.3-23-0.1-35-0.1
	C1294.5,183.8,1294.5,202.9,1294.5,222.3z"/>
<path d="M2132.9,94.7c16-0.1,34.8,2.9,52.6,10.6c33.2,14.3,54.9,38.9,64,74c8.2,31.8,6.3,63.3-7.5,93.2
	c-22.9,49.6-63.3,72.7-117,72.5c-73-0.2-116.9-53.8-119.7-117.7c-1.9-44.4,14.2-81.5,49.4-109.2C2076.5,101,2102.1,94.6,2132.9,94.7
	z M2154.8,327.7c0.9,0,1.5,0.1,2,0c25-6.2,44-20.3,54-44.3c15.5-37,16.2-74.9,2.3-112.3c-9.2-24.9-26-44.2-51.2-54.9
	c-2.2-0.9-4.5-1.5-7.2-2.4C2154.8,185.5,2154.8,256.5,2154.8,327.7z M2103.9,324.8c0-71,0-141.5,0-212.3c-2,0.5-3.7,0.9-5.3,1.3
	c-28.2,8.5-45.4,28.3-55.6,54.9c-8.6,22.4-8.5,45.6-4.8,68.8c4.3,27,14.6,51.2,35.6,69.8C2082.6,315.1,2092.4,320.9,2103.9,324.8z
	 M2134.8,109.6c0,74,0,147.1,0,220.2c9.9,0.9,9.9,0.9,9.9-8.1c0-67.9,0-135.8,0-203.7c0-2.2,0-4.4,0-7
	C2141.2,110.5,2138.2,110.1,2134.8,109.6z M2114.5,328c3.3,0.5,6.5,0.9,9.8,1.3c0-73.6,0-146.4,0-219.7c-3.4,0.3-6.5,0.5-9.8,0.7
	C2114.5,183.2,2114.5,255.4,2114.5,328z"/>
<path d="M2307.6,153.2c0,16.9-0.3,32.5,0.1,48.2c0.8,32.9,2,65.8,3.2,98.8c0.2,5.4,1,10.9,2.1,16.3c1.8,8.3,5.4,11.4,13.9,12.5
	c4.1,0.5,8.3,0.6,12.4,1.3c1.5,0.3,2.6,2,4,3.1c-1.1,1.1-2.1,2.7-3.4,3.2c-1.7,0.6-3.7,0.5-5.6,0.5c-21.9,0-43.9,0-65.8,0
	c-1.5,0-3.3,0.3-4.5-0.4c-1.4-0.8-2.3-2.5-3.4-3.8c1.2-0.9,2.4-2.3,3.7-2.7c2.7-0.7,5.6-0.7,8.4-1c8.8-1.1,12-4,13-12.9
	c0.8-7.5,1.2-15.1,1.3-22.6c0.2-58.5,0.3-117,0.4-175.5c0-4.2,0.2-8.4,0.9-12.4c0.8-5.1,3.9-6.3,8.1-3.4c2.2,1.5,4.1,3.4,6,5.2
	c61.5,59.5,123,119,184.5,178.5c1.4,1.4,2.9,2.7,5.4,5.1c0-2.6,0-3.9,0-5.1c-1.1-44.5-2.1-89-3.3-133.4c-0.2-9.1-0.7-18.2-1.9-27.1
	c-1.1-8.3-4.7-11.2-13.2-12.3c-4.1-0.6-8.3-0.5-12.4-1.2c-1.9-0.3-3.5-2-5.3-3c1.8-1.2,3.5-2.6,5.4-3.7c0.6-0.3,1.5-0.2,2.2-0.2
	c21.2,0,42.4,0,63.6,0.1c1.5,0,3.2-0.3,4.5,0.3c1.5,0.6,2.6,2,3.9,3.1c-1.3,1.1-2.4,2.8-3.9,3.2c-3.1,0.8-6.3,0.9-9.5,1.4
	c-5.5,0.9-8.9,4.3-9.5,9.8c-0.6,6.8-1,13.6-1.1,20.4c-0.4,61.1-0.6,122.3-1.1,183.4c0,4-1.9,8.1-2.9,12.1c-3.8-1.8-8.2-2.9-11.2-5.6
	c-35.4-32.3-70.8-64.5-105.6-97.4c-26.7-25.2-52.5-51.3-78.7-77.1C2310.6,157.3,2309.4,155.4,2307.6,153.2z"/>
<path d="M1578.5,199.2c45.3,0,89.9,0,134.8,0c0.1-1.7,0.4-3.2,0.4-4.6c-0.1-21.8-0.3-43.5-0.4-65.3c0-2.1-0.1-4.2-0.4-6.2
	c-1.2-9.9-5-13.5-14.9-14.5c-2.6-0.3-5.3-0.2-7.9-0.9c-1.4-0.4-2.5-1.8-3.8-2.8c1.1-1.3,2.1-3,3.5-3.8c1.2-0.7,2.9-0.3,4.5-0.4
	c21.2,0,42.4,0,63.6,0c1.3,0,2.9-0.4,3.9,0.2c1.6,0.9,2.8,2.5,4.2,3.8c-1.4,1.1-2.7,2.1-4.1,3.1c-0.3,0.2-0.7,0.2-1.1,0.2
	c-12,0.4-16.7,3.5-16.8,19.6c-0.1,58.1-0.1,116.2,0.1,174.3c0,6.4,1,12.8,2,19.1c0.9,5.4,4.2,8.8,9.8,9.4c4.5,0.5,9.1,0.8,13.5,1.6
	c1.6,0.3,2.9,2.2,4.3,3.3c-1.5,1.2-2.8,2.8-4.5,3.4c-1.7,0.6-3.7,0.3-5.6,0.3c-21.2,0-42.4,0-63.6,0c-0.9,0-2.1,0.3-2.8-0.1
	c-2.1-1.1-4.1-2.5-6.2-3.7c1.8-1.2,3.6-3.4,5.5-3.5c12.3-0.7,14.4-3.8,15.4-17.2c1.4-19.6,1.4-39.3,1.8-59c0.2-13.6,0-27.2,0-41.1
	c-45.2,0-89.8,0-134.8,0c-0.1,1.7-0.3,3.3-0.3,5c0.2,27.8,0.4,55.6,0.8,83.5c0.1,6,1.1,12,2,18c0.9,5.4,4,8.9,9.7,9.5
	c4.1,0.5,8.3,0.5,12.4,1.4c2,0.4,3.7,2.2,5.5,3.4c-2,1.3-3.9,3.5-6,3.7c-5.6,0.5-11.3,0-17,0.1c-16.3,0-32.5,0.1-48.8,0.2
	c-2.1,0-4.3,0.4-6.2-0.2c-1.7-0.5-3.1-2.2-4.6-3.4c1.4-1.2,2.5-3.2,4.1-3.6c15-3.4,16-4.2,17-19.4c0.8-12.1,1.3-24.2,1.3-36.3
	c0.1-49-0.1-98-0.2-147.1c0-1.7,0-3.4-0.2-5.1c-1-10.8-4.8-14.5-15.7-15.6c-2.6-0.3-5.3-0.3-7.9-0.9c-1.2-0.3-3.1-1.9-3-2.6
	c0.2-1.4,1.5-3,2.7-3.6c1.4-0.7,3.3-0.6,5-0.6c21.4,0,42.8,0,64.1,0c1.7,0,3.5,0,5,0.7c1.1,0.5,2.4,2.2,2.4,3.3c0,1-1.6,2.3-2.8,2.9
	c-1.3,0.6-2.9,0.7-4.4,0.9c-10.8,1.5-14,4.6-14.4,15.8c-0.6,15.9-0.6,31.8-0.8,47.7C1578.4,181,1578.5,190,1578.5,199.2z"/>
<path d="M1915.1,231c23.2,26.1,45.7,52,68.8,77.2c13.5,14.7,30.3,23.7,51,23.6c1.5,0,3.1,0.1,4.4,0.7c1,0.5,1.9,1.9,2,3
	c0.1,0.7-1,2-1.9,2.5c-1.1,0.6-2.5,1.1-3.8,1.1c-16.4-0.4-32.9-0.2-49.3-1.5c-12.1-0.9-22.5-7.4-30.4-16.3
	c-15.8-17.8-30.9-36.3-46.2-54.6c-5.9-7.1-11.6-14.5-17.1-21.9c-2.8-3.8-6-5.6-10.9-5.5c-12.3,0.3-24.5,0.1-36.9,0.1
	c-0.2,0.9-0.6,1.6-0.5,2.3c0.6,24.6,0.8,49.2,1.9,73.7c0.5,11.9,4.6,15,16.4,15.9c3.6,0.3,7.2,0.4,10.7,1.1c1.2,0.2,3.2,1.9,3.1,2.5
	c-0.3,1.4-1.5,3-2.7,3.6c-1.6,0.8-3.7,0.8-5.5,0.8c-23.3,0-46.5,0-69.8,0c-1.1,0-2.5,0.3-3.4-0.2c-1.7-0.9-3.1-2.3-4.6-3.4
	c1.4-1.2,2.8-2.4,4.2-3.5c0.3-0.2,0.7-0.2,1.1-0.3c14.3-2.4,15.3-2.8,16.7-17.1c1.3-13.9,1.7-28,1.8-41.9c0.2-43.7,0.1-87.4,0-131.2
	c0-6-0.4-12.1-0.8-18.1c-0.7-9.4-4.6-13.5-14.1-14.7c-3.4-0.4-6.8-0.4-10.2-1.1c-1.4-0.3-2.5-1.8-3.7-2.7c1.1-1.3,2.1-2.9,3.5-3.8
	c1-0.6,2.6-0.4,3.9-0.4c28.2,0,56.4-0.3,84.6,0.2c10.7,0.2,21.6,1.5,31.9,4.2c40,10.3,56.6,45.7,39.6,83.4
	c-6.2,13.9-15.8,25.3-26.7,35.7C1920.2,226.2,1918.2,228.1,1915.1,231z M1877.8,227.6c24.9-0.6,38.3-10.4,44-33.2
	c3.7-14.6,3.6-29.3-0.8-43.7c-5.3-17.5-16.5-29.4-34.3-34.6c-12.5-3.6-25.1-2.8-37.7-1.4c-3.4,0.4-4.7,2.3-4.6,5.8
	c0.1,32,0.1,63.9-0.1,95.9c0,4.2,1.7,6.4,5.7,7C1859.1,224.9,1868.5,226.2,1877.8,227.6z"/>
<path d="M2612.4,219.6c-0.2,2.3-0.3,3.6-0.3,4.8c0,24.4-0.2,48.8,0,73.3c0.2,20.1,4.5,25,24.5,25.8c13.7,0.5,27.6-0.2,41.3-1.2
	c11.1-0.8,17.7-7.6,20.3-18.4c0.6-2.4,0.9-4.9,2.1-7c0.8-1.3,2.9-2.5,4.4-2.4c0.9,0,2.4,2.3,2.6,3.7c0.4,2.4,0.2,4.9-0.2,7.3
	c-0.9,6.6-1.9,13.1-3,19.6c-2.1,11.9-4.9,14.2-17.1,14.2c-13.3,0-26.5-0.1-39.8-0.2c-28-0.2-56-0.5-84-0.9c-3.4,0-8.6,1.3-8.8-3.6
	c-0.2-4.9,5.1-3.2,8.1-3.7c10.9-1.7,12.6-2.9,14.3-14c1.2-7.6,1.9-15.4,2-23.2c0.2-51.7,0.2-103.4,0.2-155.1c0-4.3-0.2-8.7-0.7-13
	c-1.2-9.9-4.9-13.5-14.8-14.7c-3.4-0.4-6.8-0.4-10.2-1c-1.6-0.3-2.9-1.8-4.3-2.8c1.4-1.3,2.5-3.1,4.2-3.8c1.6-0.7,3.7-0.3,5.6-0.3
	c36.9,0.2,73.8,0.7,110.7,0.6c8.1,0,16.1-1.5,24.2-2.6c4.3-0.6,6,0.7,5.4,5.2c-1.4,10.5-2.6,21-4.3,31.4c-0.4,2.3-2.5,5.7-4.3,6
	c-3.8,0.8-4-3-4.4-5.8c-1.6-12.8-4.8-16.8-17.6-17.9c-18.4-1.5-36.9-2-55.9-2.9c0,30.1,0,59.2,0,88.7c13.8,0,27.3,0.1,40.9,0
	c6.1,0,12.2,0.2,18.1-0.9c5-0.9,9.6-3.6,14.4-5.4c1.9-0.7,4-1.1,6-1.7c0.4,1.9,1.4,3.9,1.3,5.7c-1.2,11.8-2.5,23.7-4.1,35.5
	c-0.3,2.1-2.2,5.4-3.8,5.7c-3.9,0.6-4-2.9-4.2-5.8c-0.8-11.5-4.3-15.9-15.8-16.8C2647.8,220.7,2630.2,220.4,2612.4,219.6z"/>
<path d="M2735.3,314.4c0.5-8.1,1-16.2,1.7-24.3c0.1-1.5,0.2-3.3,1-4.3c1-1.3,2.9-2.9,4.2-2.8c1.3,0.2,3,2.2,3.3,3.7
	c0.7,3.1,0.3,6.4,0.8,9.6c2.3,13.1,9.7,22.4,22,27.6c14.8,6.2,30.1,7.5,45.6,3.4c33.2-8.8,43.5-45.2,19.4-69.8
	c-9.2-9.4-20.2-17.1-30.3-25.6c-14.2-11.9-30-22.3-42.2-36c-33.8-37.8-16.2-87.3,33.5-97.3c20.6-4.2,41-2.4,61.4,1.3
	c13.4,2.4,13.3,2.2,12.3,15.8c-0.5,6.8-0.4,13.6-0.6,20.4c0,1.7,0.3,3.6-0.3,5.1c-0.8,1.9-2.5,3.4-3.7,5c-1.4-1.5-3.4-2.7-4.2-4.5
	c-1.1-2.5-1.3-5.5-2-8.2c-1.8-8-6.5-13.6-13.8-17c-16.7-7.6-34-9.2-51.3-2.8c-22.8,8.4-30,35.5-13.4,53.3c10.1,10.8,22.1,20,34,29
	c16.1,12.2,33.2,23.2,46.4,38.9c18.9,22.7,20.6,53.7,4.1,77.3c-9,12.9-21.4,21.4-36.2,26c-26.2,8.3-52.6,7.7-78.7-0.5
	c-12.8-4-12.8-4.6-12.7-18.2c0-1.7,0-3.4,0-5.1C2735.4,314.4,2735.3,314.4,2735.3,314.4z"/>
</svg>
